<svg xmlns="http://www.w3.org/2000/svg" width="72" height="72" viewBox="0 0 72 72">
    
    <circle cx="36" cy="36" r="26" fill="#3A78B8" stroke="#1F2937" stroke-width="2"></circle>
    <path d="M 36 10 A 26 26 0 0 1 36 62 A 19.5 26 0 0 0 36 10 Z" fill="#1F4570"></path>
    <ellipse cx="24.299999999999997" cy="24.299999999999997" rx="9.1" ry="5.72" fill="#A6D8E8" opacity="0.85"></ellipse>
  
    
    <path d="M 18 30 Q 24 26 30 28 Q 34 34 28 38 Q 22 38 18 30 Z" fill="#5A9E48" stroke="#1F2937" stroke-width="1.2"></path>
    <path d="M 38 22 Q 50 26 50 34 Q 46 38 40 36 Q 36 30 38 22 Z" fill="#5A9E48" stroke="#1F2937" stroke-width="1.2"></path>
    <path d="M 32 46 Q 42 44 46 50 Q 40 56 32 52 Z" fill="#5A9E48" stroke="#1F2937" stroke-width="1.2"></path>
    
    <path d="M 20 18 Q 28 16 32 20" stroke="#FFFFFF" stroke-width="1.5" fill="none" opacity="0.6"></path>
  </svg>